<?xml version="1.0" encoding="UTF-8"?>
<svg version="1.1" xmlns="http://www.w3.org/2000/svg" width="1024" height="1024">
<path d="M0 0 C337.92 0 675.84 0 1024 0 C1024 337.92 1024 675.84 1024 1024 C686.08 1024 348.16 1024 0 1024 C0 686.08 0 348.16 0 0 Z " fill="#FDFEFE" transform="translate(0,0)"/>
<path d="M0 0 C17.49 0 34.98 0 53 0 C53 57.42 53 114.84 53 174 C81.38 174 109.76 174 139 174 C139 190.17 139 206.34 139 223 C93.13 223 47.26 223 0 223 C0 149.41 0 75.82 0 0 Z " fill="#153D77" transform="translate(352,400)"/>
<path d="M0 0 C16.83 0 33.66 0 51 0 C53.64 5.28 56.28 10.56 59 16 C68.43928099 28.0385033 80.61911603 37.33888329 96 40 C114.86579192 41.26835313 129.62766028 38.40982677 146 29 C147.88713692 27.4078447 147.88713692 27.4078447 149 26 C152.89800187 27.61105065 155.67155326 30.26468789 158.6875 33.125 C159.23768799 33.64126953 159.78787598 34.15753906 160.35473633 34.68945312 C161.56881535 35.82935796 162.78121457 36.97105377 163.9921875 38.11425781 C166.17018778 40.15984076 168.36525705 42.1860454 170.5625 44.2109375 C172.10442091 45.64035079 173.6460904 47.07003535 175.1875 48.5 C175.9302417 49.1820752 176.6729834 49.86415039 177.43823242 50.56689453 C178.13279541 51.21513184 178.8273584 51.86336914 179.54296875 52.53125 C180.16196045 53.10423828 180.78095215 53.67722656 181.41870117 54.26757812 C183.06620797 56.07253539 184.02057155 57.77211292 185 60 C174.16001368 70.78123301 161.08489492 77.44975071 147 83 C146.21109375 83.33902344 145.4221875 83.67804688 144.609375 84.02734375 C118.69999873 93.68518011 86.98195374 91.3112735 62 80 C34.58449285 67.36100991 13.94029667 44.70522162 3.2578125 16.5 C1.20803279 10.79626517 0 6.13234029 0 0 Z " fill="#37A1A1" transform="translate(483,534)"/>
<path d="M0 0 C1.13759766 -0.00773437 2.27519531 -0.01546875 3.44726562 -0.0234375 C11.01817542 -0.00616218 18.13841341 0.80933001 25.5625 2.25 C27.39748047 2.54970703 27.39748047 2.54970703 29.26953125 2.85546875 C38.51132346 4.58757823 46.30911005 7.9020284 54.5625 12.25 C55.62726563 12.80945313 56.69203125 13.36890625 57.7890625 13.9453125 C64.84746001 17.86664445 72.00514087 22.33163132 77.5625 28.25 C77.5625 32.25 77.5625 32.25 75.21875 35.01953125 C74.17735243 36.04482214 73.12454189 37.0586089 72.0625 38.0625 C71.51005615 38.5994751 70.9576123 39.1364502 70.38842773 39.68969727 C66.9541644 43.00372381 63.42406498 46.17628542 59.76953125 49.24609375 C57.86778196 50.97281478 56.09895699 52.7434293 54.32421875 54.59765625 C53.74599365 55.19715088 53.16776855 55.79664551 52.57202148 56.41430664 C51.41339377 57.62309279 50.26539647 58.84217312 49.12915039 60.07202148 C47.515625 61.75 47.515625 61.75 44.5625 64.25 C41.2826613 63.82814089 39.45862576 62.58126978 36.9375 60.5 C24.17050854 50.67742539 9.37310146 47.6859172 -6.4375 49.25 C-19.40128728 51.20708976 -29.77872952 56.61875829 -39.4375 65.25 C-40.0975 65.25 -40.7575 65.25 -41.4375 65.25 C-41.69660156 65.82105469 -41.95570313 66.39210938 -42.22265625 66.98046875 C-43.96772925 70.2405569 -46.3266264 72.90279353 -48.68359375 75.73828125 C-50.96307044 78.82138583 -50.96307044 78.82138583 -53.4375 85.25 C-70.9275 85.25 -88.4175 85.25 -106.4375 85.25 C-104.08421039 73.48355195 -104.08421039 73.48355195 -101.4375 67.625 C-101.13481201 66.95041748 -100.83212402 66.27583496 -100.52026367 65.58081055 C-94.24552677 52.04537385 -86.05723922 40.68521184 -75.4375 30.25 C-74.70015625 29.51394531 -73.9628125 28.77789062 -73.203125 28.01953125 C-53.36354132 9.33601353 -27.05209691 -0.18330049 0 0 Z " fill="#4FC8C8" transform="translate(589.4375,399.75)"/>
<path d="M0 0 C0.33 0 0.66 0 1 0 C1 6.6 1 13.2 1 20 C29.71 20 58.42 20 88 20 C88 13.73 88 7.46 88 1 C92.61135395 2.84454158 94.84435816 4.32642082 98.5 7.5 C102.70736287 11.09910889 106.96934224 14.58368883 111.375 17.9375 C116.21800437 21.62874665 121.02785095 25.3583225 125.8125 29.125 C126.4297998 29.610896 127.04709961 30.09679199 127.68310547 30.59741211 C129.12249955 31.73106328 130.56131708 32.86544645 132 34 C130.70956193 37.87131421 129.0419408 38.68833851 125.75 41.0625 C124.65038837 41.864991 123.5514529 42.66840916 122.453125 43.47265625 C121.59750977 44.09551514 121.59750977 44.09551514 120.72460938 44.73095703 C117.94741687 46.77453668 115.22518915 48.88786519 112.5 51 C106.37822885 55.72748547 100.19790716 60.37286015 94 65 C93.26910156 65.57878906 92.53820312 66.15757812 91.78515625 66.75390625 C90 68 90 68 88 68 C88 61.73 88 55.46 88 49 C59.29 49 30.58 49 1 49 C1 55.27 1 61.54 1 68 C-2.74013056 66.50394778 -4.76320899 65.64194171 -7.75 63.3125 C-8.77673828 62.51900146 -8.77673828 62.51900146 -9.82421875 61.70947266 C-10.54222656 61.14534668 -11.26023437 60.5812207 -12 60 C-12.74894531 59.41911621 -13.49789063 58.83823242 -14.26953125 58.23974609 C-15.79340489 57.0575758 -17.31555454 55.87317972 -18.8359375 54.68652344 C-21.34112326 52.73415168 -23.85897694 50.79886915 -26.38012695 48.8671875 C-27.95798644 47.65721778 -29.53178636 46.44195997 -31.10546875 45.2265625 C-32.99541949 43.77275424 -34.89356223 42.32951677 -36.80078125 40.8984375 C-37.62964844 40.27195312 -38.45851563 39.64546875 -39.3125 39 C-40.03050781 38.46375 -40.74851562 37.9275 -41.48828125 37.375 C-41.98714844 36.92125 -42.48601562 36.4675 -43 36 C-43 35.34 -43 34.68 -43 34 C-41.3046875 32.44140625 -41.3046875 32.44140625 -38.875 30.5625 C-37.95460938 29.84449219 -37.03421875 29.12648438 -36.0859375 28.38671875 C-35.06757813 27.59910156 -34.04921875 26.81148438 -33 26 C-31.94952696 25.17444016 -30.90006889 24.34758741 -29.8515625 23.51953125 C-22.19288854 17.47344811 -14.49015929 11.48413124 -6.77734375 5.50732422 C-5.67132813 4.64905029 -5.67132813 4.64905029 -4.54296875 3.7734375 C-3.88321045 3.26216309 -3.22345215 2.75088867 -2.54370117 2.22412109 C-1.0475008 1.08573433 -1.0475008 1.08573433 0 0 Z " fill="#287194" transform="translate(465,475)"/>
<path d="M0 0 C11.33332215 -0.03168422 22.66664022 -0.05134029 34 -0.0625 C34.86297321 -0.06335602 35.72594643 -0.06421204 36.61507034 -0.06509399 C67.05876268 -0.09165658 97.49615427 0.13014565 127.9375 0.5 C128.92216248 0.51195782 129.90682495 0.52391563 130.92132568 0.53623581 C142.94765482 0.68299368 154.97387384 0.8374786 167 1 C167.1578064 5.81118774 167.1578064 5.81118774 165.73754883 7.51049805 C165.14997803 7.92340088 164.56240723 8.33630371 163.95703125 8.76171875 C163.30154297 9.23593262 162.64605469 9.71014648 161.97070312 10.19873047 C161.25849609 10.69002441 160.54628906 11.18131836 159.8125 11.6875 C158.33922265 12.74522918 156.86657514 13.80383614 155.39453125 14.86328125 C154.65412598 15.38873535 153.9137207 15.91418945 153.15087891 16.45556641 C150.04208148 18.68783116 147.01983552 21.02457946 144 23.375 C142.44345703 24.57382812 142.44345703 24.57382812 140.85546875 25.796875 C139.06394993 27.17911387 137.27455263 28.56411149 135.48828125 29.953125 C134.77027344 30.50484375 134.05226563 31.0565625 133.3125 31.625 C132.71050781 32.09164062 132.10851562 32.55828125 131.48828125 33.0390625 C130 34 130 34 128 34 C128 27.73 128 21.46 128 15 C99.29 15 70.58 15 41 15 C41 21.27 41 27.54 41 34 C37.25986944 32.50394778 35.23679101 31.64194171 32.25 29.3125 C31.22289917 28.51875977 31.22289917 28.51875977 30.17504883 27.70898438 C29.45728271 27.14501953 28.7395166 26.58105469 28 26 C27.25322998 25.42056641 26.50645996 24.84113281 25.73706055 24.24414062 C24.21544803 23.06335242 22.69549883 21.88041758 21.17724609 20.6953125 C19.19455811 19.15149266 17.20386457 17.61920495 15.20703125 16.09375 C14.63017578 15.65289063 14.05332031 15.21203125 13.45898438 14.7578125 C12.91564453 14.34273437 12.37230469 13.92765625 11.8125 13.5 C9.86674699 12.01072116 7.92882701 10.5111362 6 9 C5.44103027 8.5875 4.88206055 8.175 4.30615234 7.75 C2.63671875 6.46875 2.63671875 6.46875 0 4 C0 2.68 0 1.36 0 0 Z " fill="#1E5F7F" transform="translate(425,509)"/>
<path d="M0 0 C16.83 0 33.66 0 51 0 C50.67 1.65 50.34 3.3 50 5 C48.66601578 4.33300789 47.35228056 3.62390484 46.0625 2.875 C43.86905405 1.67608107 43.86905405 1.67608107 41 3 C38.48025426 3.0162635 35.99609125 2.97477571 33.48046875 2.87890625 C32.74427811 2.85529526 32.00808746 2.83168427 31.24958801 2.80735779 C28.89535562 2.7308621 26.54146027 2.6469222 24.1875 2.5625 C21.84422218 2.48319351 19.50089956 2.40541839 17.157547 2.32835388 C15.70053132 2.27992005 14.24356646 2.22992409 12.78666687 2.17811584 C8.85555473 2.04182533 4.9334099 1.97508317 1 2 C0.67 2.66 0.34 3.32 0 4 C0 2.68 0 1.36 0 0 Z " fill="#307D7A" transform="translate(483,534)"/>
<path d="M0 0 C21.12 0 42.24 0 64 0 C64 0.33 64 0.66 64 1 C44.2 1.33 24.4 1.66 4 2 C5.65 3.98 7.3 5.96 9 8 C8.01 8.33 7.02 8.66 6 9 C2.8125 6.8125 2.8125 6.8125 0 4 C0 2.68 0 1.36 0 0 Z " fill="#134174" transform="translate(425,509)"/>
<path d="M0 0 C10.89 0 21.78 0 33 0 C33.495 7.425 33.495 7.425 34 15 C34.99 15.99 35.98 16.98 37 18 C35.35 18.66 33.7 19.32 32 20 C32 13.73 32 7.46 32 1 C21.44 1 10.88 1 0 1 C0 0.67 0 0.34 0 0 Z " fill="#3A8599" transform="translate(521,523)"/>
<path d="M0 0 C1.98 1.32 3.96 2.64 6 4 C5 7 5 7 2.9375 8.1875 C2.298125 8.455625 1.65875 8.72375 1 9 C0.505 8.01 0.505 8.01 0 7 C0.33 6.34 0.66 5.68 1 5 C0.08863281 5.08378906 -0.82273437 5.16757812 -1.76171875 5.25390625 C-13.25149095 6.15708237 -24.50787175 5.7392107 -36 5 C-36 4.67 -36 4.34 -36 4 C-23.79 3.67 -11.58 3.34 1 3 C0.505 1.515 0.505 1.515 0 0 Z " fill="#369AA2" transform="translate(591,505)"/>
<path d="M0 0 C5.625 2.25 5.625 2.25 8 6 C5.525 5.01 5.525 5.01 3 4 C2.95101562 4.91523438 2.90203125 5.83046875 2.8515625 6.7734375 C2.77679687 7.96195312 2.70203125 9.15046875 2.625 10.375 C2.52058594 12.15003906 2.52058594 12.15003906 2.4140625 13.9609375 C2 17 2 17 0 19 C0 12.73 0 6.46 0 0 Z " fill="#44A4AC" transform="translate(553,476)"/>
<path d="M0 0 C3.3 0 6.6 0 10 0 C10 0.33 10 0.66 10 1 C8.02 1.33 6.04 1.66 4 2 C5.65 3.98 7.3 5.96 9 8 C8.01 8.33 7.02 8.66 6 9 C2.8125 6.8125 2.8125 6.8125 0 4 C0 2.68 0 1.36 0 0 Z " fill="#0B2F60" transform="translate(425,509)"/>
<path d="M0 0 C0.33 0.99 0.66 1.98 1 3 C2.423125 3.12375 2.423125 3.12375 3.875 3.25 C7 4 7 4 8.375 6.0625 C8.58125 6.701875 8.7875 7.34125 9 8 C9.66 7.67 10.32 7.34 11 7 C10.67 8.32 10.34 9.64 10 11 C6.37 8.36 2.74 5.72 -1 3 C-0.67 2.01 -0.34 1.02 0 0 Z " fill="#193B6B" transform="translate(454,532)"/>
<path d="M0 0 C0.33 0 0.66 0 1 0 C1.03738281 0.97582031 1.07476563 1.95164062 1.11328125 2.95703125 C1.21189453 4.86548828 1.21189453 4.86548828 1.3125 6.8125 C1.37050781 8.07707031 1.42851563 9.34164062 1.48828125 10.64453125 C1.7113494 13.96603693 1.7113494 13.96603693 3.54296875 15.94921875 C4.02378906 16.29597656 4.50460937 16.64273438 5 17 C3.35 17.66 1.7 18.32 0 19 C0 12.73 0 6.46 0 0 Z " fill="#51A7AB" transform="translate(553,524)"/>
<path d="M0 0 C1.65 1.32 3.3 2.64 5 4 C3.25 7.875 3.25 7.875 1 9 C1 8.01 1 7.02 1 6 C0.34 6 -0.32 6 -1 6 C-0.67 4.02 -0.34 2.04 0 0 Z " fill="#49B4B3" transform="translate(663,588)"/>
<path d="M0 0 C0.598125 0.20625 1.19625 0.4125 1.8125 0.625 C0.8125 2.625 0.8125 2.625 -1.1875 3.625 C-1.8475 4.285 -2.5075 4.945 -3.1875 5.625 C-3.8475 4.305 -4.5075 2.985 -5.1875 1.625 C-2.1875 -0.375 -2.1875 -0.375 0 0 Z " fill="#254C76" transform="translate(427.1875,507.375)"/>
<path d="M0 0 C2.88437779 1.29299694 4.87219421 2.65941363 7 5 C4.125 4.6875 4.125 4.6875 1 4 C0.34 3.01 -0.32 2.02 -1 1 C-0.67 0.67 -0.34 0.34 0 0 Z " fill="#092F5F" transform="translate(435,518)"/>
<path d="M0 0 C0.66 0.33 1.32 0.66 2 1 C0.35 2.98 -1.3 4.96 -3 7 C-3.99 6.67 -4.98 6.34 -6 6 C-4 4 -2 2 0 0 Z " fill="#184577" transform="translate(436,498)"/>
<path d="M0 0 C0.99 0.33 1.98 0.66 3 1 C1 3 1 3 -2 5 C-2.99 4.67 -3.98 4.34 -5 4 C-2.6875 1.9375 -2.6875 1.9375 0 0 Z " fill="#1D4980" transform="translate(458,481)"/>
</svg>
